<?xml version="1.0" encoding="UTF-8"?><svg xmlns="http://www.w3.org/2000/svg" xmlns:xlink="http://www.w3.org/1999/xlink" viewBox="0 0 256.93 40"><defs><linearGradient id="Degradado_sin_nombre_18" x1="249.98" y1="23.75" x2="243.97" y2="30.07" gradientUnits="userSpaceOnUse"><stop offset=".6" stop-color="#ddc9a3"/><stop offset=".7" stop-color="#d1b68a"/><stop offset=".89" stop-color="#bc955c"/></linearGradient><linearGradient id="Degradado_sin_nombre_78" x1="247.15" y1="26.9" x2="244.04" y2="29.68" gradientUnits="userSpaceOnUse"><stop offset=".56" stop-color="#000" stop-opacity="0"/><stop offset="1" stop-color="#000"/></linearGradient><linearGradient id="Degradado_sin_nombre_20" x1="247.7" y1="25.89" x2="245.92" y2="28.99" gradientUnits="userSpaceOnUse"><stop offset=".21" stop-color="#fff"/><stop offset=".27" stop-color="#f0f0f0" stop-opacity=".81"/><stop offset=".4" stop-color="#d7d7d7" stop-opacity=".46"/><stop offset=".5" stop-color="#c5c5c5" stop-opacity=".21"/><stop offset=".58" stop-color="#bababa" stop-opacity=".06"/><stop offset=".62" stop-color="#b6b6b6" stop-opacity="0"/></linearGradient><linearGradient id="Degradado_sin_nombre_18-2" x1="253.17" y1="18.31" x2="240.84" y2="37.77" xlink:href="#Degradado_sin_nombre_18"/><linearGradient id="Degradado_sin_nombre_78-2" x1="243.77" y1="24.97" x2="247.86" y2="35.65" xlink:href="#Degradado_sin_nombre_78"/><linearGradient id="Degradado_sin_nombre_13" x1="7609.13" y1="1730.07" x2="7610.31" y2="1722.57" gradientTransform="translate(6528.62 2466.56) rotate(-145.39) scale(.86 -.91)" gradientUnits="userSpaceOnUse"><stop offset="0" stop-color="#fff"/><stop offset=".05" stop-color="#f8f8f8" stop-opacity=".91"/><stop offset=".15" stop-color="#e7e7e7" stop-opacity=".67"/><stop offset=".25" stop-color="#d8d8d8" stop-opacity=".47"/><stop offset=".35" stop-color="#cbcbcb" stop-opacity=".3"/><stop offset=".44" stop-color="#c2c2c2" stop-opacity=".17"/><stop offset=".53" stop-color="#bbb" stop-opacity=".08"/><stop offset=".62" stop-color="#b7b7b7" stop-opacity=".02"/><stop offset=".69" stop-color="#b6b6b6" stop-opacity="0"/></linearGradient><linearGradient id="Degradado_sin_nombre_9" x1="280.5" y1="73.77" x2="280.34" y2="74.31" gradientTransform="translate(-21.29 -58.96) rotate(3.54)" gradientUnits="userSpaceOnUse"><stop offset=".49" stop-color="#802343"/><stop offset="1" stop-color="#691c32"/></linearGradient><linearGradient id="Degradado_sin_nombre_9-2" x1="281.18" y1="70.94" x2="281.71" y2="72.17" xlink:href="#Degradado_sin_nombre_9"/><linearGradient id="Degradado_sin_nombre_9-3" x1="281.31" y1="71.34" x2="281.07" y2="71.63" xlink:href="#Degradado_sin_nombre_9"/><linearGradient id="Degradado_sin_nombre_9-4" x1="281.63" y1="71.59" x2="281.66" y2="72.48" xlink:href="#Degradado_sin_nombre_9"/><linearGradient id="Degradado_sin_nombre_9-5" x1="281.49" y1="71.76" x2="281.31" y2="72.16" xlink:href="#Degradado_sin_nombre_9"/><linearGradient id="Degradado_sin_nombre_9-6" x1="281.69" y1="72.17" x2="281.69" y2="72.92" xlink:href="#Degradado_sin_nombre_9"/><linearGradient id="Degradado_sin_nombre_9-7" x1="281.55" y1="72.2" x2="281.35" y2="72.59" xlink:href="#Degradado_sin_nombre_9"/><linearGradient id="Degradado_sin_nombre_9-8" x1="281.57" y1="72.69" x2="281.63" y2="73.28" xlink:href="#Degradado_sin_nombre_9"/><linearGradient id="Degradado_sin_nombre_9-9" x1="281.65" y1="72.44" x2="281.33" y2="73" xlink:href="#Degradado_sin_nombre_9"/><linearGradient id="Degradado_sin_nombre_9-10" x1="281.48" y1="73.13" x2="281.44" y2="73.55" xlink:href="#Degradado_sin_nombre_9"/><linearGradient id="Degradado_sin_nombre_9-11" x1="281.58" y1="72.69" x2="281.23" y2="73.35" xlink:href="#Degradado_sin_nombre_9"/><linearGradient id="Degradado_sin_nombre_9-12" x1="281.4" y1="73.37" x2="281.18" y2="73.83" xlink:href="#Degradado_sin_nombre_9"/><linearGradient id="Degradado_sin_nombre_9-13" x1="281.43" y1="73.06" x2="281.07" y2="73.6" xlink:href="#Degradado_sin_nombre_9"/><linearGradient id="Degradado_sin_nombre_9-14" x1="281.14" y1="73.6" x2="280.95" y2="73.99" xlink:href="#Degradado_sin_nombre_9"/><linearGradient id="Degradado_sin_nombre_9-15" x1="281.05" y1="73.55" x2="280.86" y2="73.8" xlink:href="#Degradado_sin_nombre_9"/><linearGradient id="Degradado_sin_nombre_9-16" x1="280.94" y1="73.83" x2="280.76" y2="74.02" xlink:href="#Degradado_sin_nombre_9"/><linearGradient id="Degradado_sin_nombre_14" x1="252.07" y1="28.58" x2="252.18" y2="38.8" gradientUnits="userSpaceOnUse"><stop offset=".56" stop-color="#802343"/><stop offset=".88" stop-color="#691c32"/></linearGradient><linearGradient id="Degradado_sin_nombre_13-2" x1="-226.07" y1="-204.13" x2="-224.89" y2="-211.63" gradientTransform="translate(407.96 231.36) rotate(3.56) scale(.74 .91)" xlink:href="#Degradado_sin_nombre_13"/><linearGradient id="Degradado_sin_nombre_9-17" x1="368.73" y1="1888.64" x2="368.58" y2="1889.18" gradientTransform="translate(823.27 -1741.09) rotate(34.87) scale(.9 .94) skewX(7.1)" xlink:href="#Degradado_sin_nombre_9"/><linearGradient id="Degradado_sin_nombre_9-18" x1="369.41" y1="1885.8" x2="369.94" y2="1887.04" gradientTransform="translate(823.27 -1741.09) rotate(34.87) scale(.9 .94) skewX(7.1)" xlink:href="#Degradado_sin_nombre_9"/><linearGradient id="Degradado_sin_nombre_9-19" x1="369.54" y1="1886.21" x2="369.3" y2="1886.5" gradientTransform="translate(823.27 -1741.09) rotate(34.87) scale(.9 .94) skewX(7.1)" xlink:href="#Degradado_sin_nombre_9"/><linearGradient id="Degradado_sin_nombre_9-20" x1="369.86" y1="1886.46" x2="369.9" y2="1887.34" gradientTransform="translate(823.27 -1741.09) rotate(34.87) scale(.9 .94) skewX(7.1)" xlink:href="#Degradado_sin_nombre_9"/><linearGradient id="Degradado_sin_nombre_9-21" x1="369.73" y1="1886.63" x2="369.54" y2="1887.03" gradientTransform="translate(823.27 -1741.09) rotate(34.87) scale(.9 .94) skewX(7.1)" xlink:href="#Degradado_sin_nombre_9"/><linearGradient id="Degradado_sin_nombre_9-22" x1="369.93" y1="1887.03" x2="369.93" y2="1887.79" gradientTransform="translate(823.27 -1741.09) rotate(34.87) scale(.9 .94) skewX(7.1)" xlink:href="#Degradado_sin_nombre_9"/><linearGradient id="Degradado_sin_nombre_9-23" x1="369.79" y1="1887.07" x2="369.59" y2="1887.46" gradientTransform="translate(823.27 -1741.09) rotate(34.87) scale(.9 .94) skewX(7.1)" xlink:href="#Degradado_sin_nombre_9"/><linearGradient id="Degradado_sin_nombre_9-24" x1="369.8" y1="1887.56" x2="369.86" y2="1888.14" gradientTransform="translate(823.27 -1741.09) rotate(34.87) scale(.9 .94) skewX(7.1)" xlink:href="#Degradado_sin_nombre_9"/><linearGradient id="Degradado_sin_nombre_9-25" x1="369.89" y1="1887.31" x2="369.56" y2="1887.86" gradientTransform="translate(823.27 -1741.09) rotate(34.87) scale(.9 .94) skewX(7.1)" xlink:href="#Degradado_sin_nombre_9"/><linearGradient id="Degradado_sin_nombre_9-26" x1="369.71" y1="1888" x2="369.68" y2="1888.42" gradientTransform="translate(823.27 -1741.09) rotate(34.87) scale(.9 .94) skewX(7.1)" xlink:href="#Degradado_sin_nombre_9"/><linearGradient id="Degradado_sin_nombre_9-27" x1="369.81" y1="1887.56" x2="369.46" y2="1888.22" gradientTransform="translate(823.27 -1741.09) rotate(34.87) scale(.9 .94) skewX(7.1)" xlink:href="#Degradado_sin_nombre_9"/><linearGradient id="Degradado_sin_nombre_9-28" x1="369.63" y1="1888.24" x2="369.42" y2="1888.7" gradientTransform="translate(823.27 -1741.09) rotate(34.87) scale(.9 .94) skewX(7.1)" xlink:href="#Degradado_sin_nombre_9"/><linearGradient id="Degradado_sin_nombre_9-29" x1="369.66" y1="1887.92" x2="369.3" y2="1888.47" gradientTransform="translate(823.27 -1741.09) rotate(34.87) scale(.9 .94) skewX(7.1)" xlink:href="#Degradado_sin_nombre_9"/><linearGradient id="Degradado_sin_nombre_9-30" x1="369.37" y1="1888.47" x2="369.18" y2="1888.86" gradientTransform="translate(823.27 -1741.09) rotate(34.87) scale(.9 .94) skewX(7.1)" xlink:href="#Degradado_sin_nombre_9"/><linearGradient id="Degradado_sin_nombre_9-31" x1="369.29" y1="1888.42" x2="369.09" y2="1888.66" gradientTransform="translate(823.27 -1741.09) rotate(34.87) scale(.9 .94) skewX(7.1)" xlink:href="#Degradado_sin_nombre_9"/><linearGradient id="Degradado_sin_nombre_9-32" x1="369.17" y1="1888.7" x2="368.99" y2="1888.89" gradientTransform="translate(823.27 -1741.09) rotate(34.87) scale(.9 .94) skewX(7.1)" xlink:href="#Degradado_sin_nombre_9"/><linearGradient id="Degradado_sin_nombre_9-33" x1="253.43" y1="25.3" x2="254.11" y2="33.14" gradientTransform="matrix(1, 0, 0, 1, 0, 0)" xlink:href="#Degradado_sin_nombre_9"/><linearGradient id="Degradado_sin_nombre_78-3" x1="253.5" y1="25.8" x2="254.13" y2="33.02" xlink:href="#Degradado_sin_nombre_78"/><linearGradient id="Degradado_sin_nombre_78-4" x1="256.29" y1="31.24" x2="247.65" y2="36.47" xlink:href="#Degradado_sin_nombre_78"/><linearGradient id="Degradado_sin_nombre_8" x1="252.49" y1="27.33" x2="254.29" y2="31.06" gradientUnits="userSpaceOnUse"><stop offset=".21" stop-color="#fff"/><stop offset=".28" stop-color="#f0f0f0" stop-opacity=".81"/><stop offset=".4" stop-color="#d7d7d7" stop-opacity=".46"/><stop offset=".49" stop-color="#c5c5c5" stop-opacity=".21"/><stop offset=".56" stop-color="#bababa" stop-opacity=".06"/><stop offset=".6" stop-color="#b6b6b6" stop-opacity="0"/></linearGradient><linearGradient id="Degradado_sin_nombre_7" x1="250.07" y1="36.09" x2="249.37" y2="39.57" gradientUnits="userSpaceOnUse"><stop offset=".36" stop-color="#000" stop-opacity="0"/><stop offset=".94" stop-color="#000"/></linearGradient><linearGradient id="Degradado_sin_nombre_5" x1="246.72" y1="39.65" x2="247.68" y2="36.67" gradientUnits="userSpaceOnUse"><stop offset=".14" stop-color="#5c1931"/><stop offset=".7" stop-color="#671830"/></linearGradient><linearGradient id="Degradado_sin_nombre_3" x1="243.45" y1="28.62" x2="248.71" y2="42.01" gradientUnits="userSpaceOnUse"><stop offset="0" stop-color="#fff"/><stop offset=".22" stop-color="#e2e2e2" stop-opacity=".61"/><stop offset=".42" stop-color="#cacaca" stop-opacity=".28"/><stop offset=".56" stop-color="#bbb" stop-opacity=".08"/><stop offset=".63" stop-color="#b6b6b6" stop-opacity="0"/></linearGradient><linearGradient id="Degradado_sin_nombre_3-2" x1="253.57" y1="34.69" x2="254.24" y2="36.2" xlink:href="#Degradado_sin_nombre_3"/><linearGradient id="Degradado_sin_nombre_12" x1="248.42" y1="31.93" x2="249.55" y2="49.63" gradientUnits="userSpaceOnUse"><stop offset=".36" stop-color="#000" stop-opacity="0"/><stop offset=".94" stop-color="#000"/></linearGradient></defs><g style="isolation:isolate;"><g id="Capa_1"><g><g><g><path d="M6.94,20.15c.05-.44,.13-2.82,.13-4.88V5.62h-.47c-1.12,0-2.31,.05-3.14,.16l-.75,3.39c-.52,.03-1.74,0-2.26-.08-.05-1.67-.05-3.47,0-5.21H9.2c3.06,0,5.56-.03,7.51-.16,.16,.21,.49,.65,.62,.86-.08,1.38-.26,3.02-.44,4.54-.49,.05-1.58,.03-2.05-.03l-.65-3.31c-.86-.1-2-.13-3.04-.13h-.68V15.43c0,1.62,0,4.25,.21,4.54,.21,.31,1.4,.63,2.29,.86l-.29,1.3H4.87l-.29-1.3,2.36-.68Z" style="fill:#9f2241;"/><path d="M21.92,20.15c.08-.44,.16-3.57,.16-4.88v-4.69c0-1.62,0-4.25-.21-4.54-.23-.31-1.43-.63-2.29-.86l.29-1.3h3.77c.91,0,3.79-.16,5.04-.16,4.36,0,6.96,1.69,6.96,5.08,0,2.37-1.74,3.88-3.35,4.69,1.09,2.16,3.06,5.79,3.66,6.65l2,.68-.29,1.3c-1.43,0-2.73,.05-4.6,.1-.57-1.33-2.47-5.14-3.79-7.67h-3.82v.86c0,1.62,0,4.25,.21,4.54,.23,.31,1.43,.63,2.29,.86l-.29,1.3h-7.79l-.29-1.3,2.34-.68Zm3.53-7.67l4.68,.16c1.04-.6,2-1.93,2-3.68,0-1.25-.39-2.06-.94-2.66-.65-.47-1.79-.7-3.09-.7-.81,0-1.79,.13-2.49,.26-.08,.52-.16,3.57-.16,4.88v1.75Z" style="fill:#9f2241;"/><path d="M46.64,22.13h-7.14l-.26-1.3,2.1-.68c1.77-4.28,3.53-9.13,5.22-13.71l.75-2.56c1.25-.16,3.22-.29,4.39-.31,.21,.83,.55,1.75,.99,2.92,1.71,4.75,3.77,10.25,5.12,13.66l2.13,.68-.29,1.3h-7.9l-.26-1.3,2.57-.68c-.44-1.17-.94-2.56-1.45-4.09l-6.99,.13c-.47,1.36-.91,2.71-1.32,3.96l2.62,.68-.29,1.3Zm5.32-7.9c-.91-2.56-1.92-5.37-2.99-8.19-.93,2.63-1.84,5.4-2.73,8.11l5.71,.08Z" style="fill:#9f2241;"/><path d="M64.16,20.15c.08-.44,.16-3.57,.16-4.88v-4.69c0-1.62,0-4.25-.21-4.54-.23-.31-1.43-.63-2.29-.86l.29-1.3h3.64c.88,0,3.74-.16,4.91-.16,4.13,0,6.7,1.56,6.7,4.75,0,2.03-1.35,3.42-2.88,4.22,2.1,.52,3.87,1.96,3.87,4.46,0,3.42-3.09,5.19-6.7,5.19-1.66,0-3.92-.21-5.71-.21h-3.82l-.29-1.3,2.34-.68Zm6.81,.31c.73,0,1.71-.1,2.42-.34,.81-.57,1.4-1.64,1.4-2.97,0-1.83-1.19-3.08-3.56-3.08h-3.53v1.36c0,1.62-.03,4.25,.21,4.54,.26,.34,1.79,.5,3.06,.5Zm-3.27-8.45l4.18,.16c.99-.55,1.97-1.8,1.97-3.44,0-1.12-.34-1.85-.75-2.37-.68-.52-1.69-.76-2.88-.76-.7,0-1.74,.13-2.36,.26-.08,.5-.16,3.57-.16,4.88v1.28Z" style="fill:#9f2241;"/><path d="M86.81,22.13h-7.14l-.26-1.3,2.1-.68c1.77-4.28,3.53-9.13,5.22-13.71l.75-2.56c1.25-.16,3.22-.29,4.39-.31,.21,.83,.55,1.75,.99,2.92,1.71,4.75,3.77,10.25,5.12,13.66l2.13,.68-.29,1.3h-7.9l-.26-1.3,2.57-.68c-.44-1.17-.94-2.56-1.45-4.09l-6.99,.13c-.47,1.36-.91,2.71-1.32,3.96l2.62,.68-.29,1.3Zm5.32-7.9c-.91-2.56-1.92-5.37-2.99-8.19-.93,2.63-1.84,5.4-2.73,8.11l5.71,.08Z" style="fill:#9f2241;"/><path d="M104.41,15.74v-5.16c0-1.62,0-4.25-.21-4.54-.21-.31-1.43-.63-2.29-.86l.29-1.3h7.82l.26,1.3-2.34,.68c-.08,.44-.16,3.57-.16,4.88v5.92c0,4.3-1.27,5.87-4.91,8.79h-.68c-.52-.55-1.17-1.62-1.45-2.35l3.32-1.96c.26-.91,.34-2.29,.34-5.4Z" style="fill:#9f2241;"/><path d="M111.54,13.55c0-6.07,3.79-10.06,9.3-10.06,4.99,0,8.42,3.55,8.42,9.05,0,5.81-3.64,9.99-9.01,9.99s-8.7-3.52-8.7-8.97Zm12.52,5.53c.68-.89,1.64-2.87,1.64-6.07,0-4.46-1.61-7.25-5.35-7.25-1.4,0-2.7,.52-3.56,1.15-.96,1.33-1.69,3.44-1.69,6.31,0,4.35,1.84,7.04,5.4,7.04,1.56,0,2.81-.52,3.56-1.17Z" style="fill:#9f2241;"/></g><g><path d="M.9,33.48c-.28-.08-.5-.19-.67-.32l.3-.66c.16,.12,.36,.22,.58,.29,.22,.07,.45,.11,.67,.11,.25,0,.43-.04,.55-.11,.12-.07,.18-.17,.18-.3,0-.09-.04-.17-.11-.23-.07-.06-.16-.11-.27-.14-.11-.04-.26-.08-.45-.12-.29-.07-.53-.14-.71-.21-.18-.07-.34-.18-.47-.33s-.2-.36-.2-.61c0-.22,.06-.42,.18-.6s.3-.32,.54-.43c.24-.11,.53-.16,.88-.16,.24,0,.48,.03,.71,.09,.23,.06,.43,.14,.61,.25l-.27,.67c-.35-.2-.7-.3-1.05-.3-.25,0-.43,.04-.54,.12-.12,.08-.18,.18-.18,.32s.07,.23,.2,.29c.14,.06,.34,.13,.62,.19,.29,.07,.53,.14,.71,.21,.18,.07,.34,.18,.47,.33,.13,.15,.2,.35,.2,.6,0,.22-.06,.42-.18,.6-.12,.18-.3,.32-.54,.43s-.54,.16-.88,.16c-.3,0-.59-.04-.87-.12Z" style="fill:#bc955c;"/><path d="M7.7,32.83v.71h-2.94v-3.81h2.87v.71h-1.99v.83h1.76v.69h-1.76v.88h2.06Z" style="fill:#bc955c;"/><path d="M9.86,33.35c-.31-.17-.56-.4-.74-.7-.18-.3-.27-.64-.27-1.01s.09-.72,.27-1.01,.42-.53,.74-.7,.66-.25,1.05-.25c.33,0,.63,.06,.89,.17,.27,.12,.49,.28,.67,.5l-.56,.52c-.26-.3-.57-.45-.95-.45-.23,0-.44,.05-.63,.15-.18,.1-.33,.25-.43,.43-.1,.18-.15,.4-.15,.63s.05,.45,.15,.63c.1,.18,.25,.33,.43,.43,.18,.1,.39,.15,.63,.15,.38,0,.7-.15,.95-.45l.56,.52c-.18,.22-.4,.39-.67,.51-.27,.12-.57,.17-.89,.17-.39,0-.74-.08-1.05-.25Z" style="fill:#bc955c;"/><path d="M16.18,33.54l-.73-1.06h-.81v1.06h-.88v-3.81h1.64c.34,0,.63,.06,.88,.17,.25,.11,.44,.27,.57,.48,.13,.21,.2,.45,.2,.73s-.07,.53-.2,.73c-.14,.2-.33,.36-.58,.47l.85,1.22h-.94Zm-.22-2.92c-.14-.11-.34-.17-.6-.17h-.72v1.33h.72c.26,0,.46-.06,.6-.17s.21-.28,.21-.49-.07-.38-.21-.49Z" style="fill:#bc955c;"/><path d="M21.43,32.83v.71h-2.94v-3.81h2.87v.71h-1.99v.83h1.76v.69h-1.76v.88h2.06Z" style="fill:#bc955c;"/><path d="M23.7,30.45h-1.21v-.72h3.3v.72h-1.21v3.09h-.88v-3.09Z" style="fill:#bc955c;"/><path d="M29.13,32.72h-1.76l-.34,.82h-.9l1.69-3.81h.87l1.7,3.81h-.92l-.34-.82Zm-.28-.67l-.6-1.46-.6,1.46h1.2Z" style="fill:#bc955c;"/><path d="M33.96,33.54l-.73-1.06h-.81v1.06h-.88v-3.81h1.64c.34,0,.63,.06,.88,.17,.25,.11,.44,.27,.57,.48,.13,.21,.2,.45,.2,.73s-.07,.53-.2,.73c-.14,.2-.33,.36-.58,.47l.85,1.22h-.94Zm-.22-2.92c-.14-.11-.34-.17-.6-.17h-.72v1.33h.72c.26,0,.46-.06,.6-.17s.21-.28,.21-.49-.07-.38-.21-.49Z" style="fill:#bc955c;"/><path d="M36.95,28.64h.91l-.98,.78h-.66l.73-.78Zm-.68,1.09h.88v3.81h-.88v-3.81Z" style="fill:#bc955c;"/><path d="M41.3,32.72h-1.76l-.34,.82h-.9l1.69-3.81h.87l1.7,3.81h-.92l-.34-.82Zm-.28-.67l-.6-1.46-.6,1.46h1.2Z" style="fill:#bc955c;"/><path d="M46.01,29.73h1.72c.41,0,.78,.08,1.09,.24,.32,.16,.56,.38,.74,.67,.18,.29,.26,.62,.26,1s-.09,.71-.26,1c-.18,.29-.42,.51-.74,.67-.32,.16-.68,.24-1.09,.24h-1.72v-3.81Zm1.68,3.08c.38,0,.68-.11,.91-.32,.23-.21,.34-.5,.34-.86s-.11-.65-.34-.86c-.23-.21-.53-.32-.91-.32h-.8v2.36h.8Z" style="fill:#bc955c;"/><path d="M54.16,32.83v.71h-2.94v-3.81h2.87v.71h-1.99v.83h1.76v.69h-1.76v.88h2.06Z" style="fill:#bc955c;"/><path d="M55.62,29.73h.88v3.09h1.9v.72h-2.78v-3.81Z" style="fill:#bc955c;"/><path d="M62.73,30.45h-1.21v-.72h3.3v.72h-1.21v3.09h-.88v-3.09Z" style="fill:#bc955c;"/><path d="M68.43,33.54l-.73-1.06h-.81v1.06h-.88v-3.81h1.64c.34,0,.63,.06,.88,.17,.25,.11,.44,.27,.57,.48,.13,.21,.2,.45,.2,.73s-.07,.53-.2,.73c-.14,.2-.33,.36-.58,.47l.85,1.22h-.94Zm-.22-2.92c-.14-.11-.34-.17-.6-.17h-.72v1.33h.72c.26,0,.46-.06,.6-.17s.21-.28,.21-.49-.07-.38-.21-.49Z" style="fill:#bc955c;"/><path d="M73.39,32.72h-1.76l-.34,.82h-.9l1.69-3.81h.87l1.7,3.81h-.92l-.34-.82Zm-.28-.67l-.6-1.46-.6,1.46h1.2Z" style="fill:#bc955c;"/><path d="M79.1,31.91c.12,.16,.18,.36,.18,.6,0,.33-.13,.59-.39,.77s-.63,.27-1.13,.27h-1.96v-3.81h1.85c.46,0,.82,.09,1.06,.27s.37,.42,.37,.72c0,.18-.04,.35-.13,.5s-.21,.26-.37,.34c.22,.07,.39,.18,.51,.35Zm-2.42-1.51v.9h.87c.22,0,.38-.04,.49-.11,.11-.08,.17-.19,.17-.34s-.06-.26-.17-.33c-.11-.07-.28-.11-.49-.11h-.87Zm1.55,2.37c.12-.08,.18-.19,.18-.35,0-.32-.23-.47-.7-.47h-1.02v.94h1.02c.23,0,.41-.04,.52-.11Z" style="fill:#bc955c;"/><path d="M83.17,32.72h-1.76l-.34,.82h-.9l1.69-3.81h.87l1.7,3.81h-.92l-.34-.82Zm-.28-.67l-.6-1.46-.6,1.46h1.2Z" style="fill:#bc955c;"/><path d="M85.76,33.46c-.22-.1-.39-.23-.53-.41l.49-.59c.21,.28,.44,.42,.7,.42,.36,0,.54-.21,.54-.63v-1.81h-1.33v-.71h2.21v2.47c0,.47-.12,.82-.35,1.05-.23,.23-.57,.35-1.02,.35-.26,0-.49-.05-.71-.14Z" style="fill:#bc955c;"/><path d="M90.21,33.35c-.32-.17-.56-.41-.74-.7s-.27-.64-.27-1.01,.09-.71,.27-1.01,.43-.53,.74-.7c.32-.17,.67-.26,1.06-.26s.75,.09,1.06,.26c.31,.17,.56,.41,.74,.7,.18,.3,.27,.64,.27,1.01s-.09,.71-.27,1.01c-.18,.3-.43,.53-.74,.7-.31,.17-.67,.26-1.06,.26s-.75-.09-1.06-.26Zm1.67-.65c.18-.1,.32-.25,.43-.43,.1-.18,.15-.4,.15-.63s-.05-.45-.15-.63c-.1-.18-.24-.33-.43-.43-.18-.1-.38-.15-.61-.15s-.43,.05-.61,.15c-.18,.1-.32,.25-.43,.43-.1,.18-.15,.4-.15,.63s.05,.45,.15,.63c.1,.18,.24,.33,.43,.43,.18,.1,.38,.15,.61,.15s.43-.05,.61-.15Z" style="fill:#bc955c;"/><path d="M2.35,38.47v1.35h-.88v-1.36l-1.47-2.45H.93l1.01,1.69,1.01-1.69h.86l-1.47,2.46Z" style="fill:#bc955c;"/><path d="M9.75,36.18c.25,.11,.44,.27,.57,.48,.13,.21,.2,.45,.2,.73s-.07,.52-.2,.73c-.13,.21-.32,.37-.57,.48-.25,.11-.54,.17-.88,.17h-.76v1.05h-.88v-3.81h1.64c.34,0,.63,.06,.88,.17Zm-.32,1.7c.14-.11,.21-.28,.21-.49s-.07-.38-.21-.49-.34-.17-.6-.17h-.72v1.32h.72c.26,0,.46-.06,.6-.17Z" style="fill:#bc955c;"/><path d="M14.29,39.82l-.73-1.06h-.81v1.06h-.88v-3.81h1.64c.34,0,.63,.06,.88,.17,.25,.11,.44,.27,.57,.48,.13,.21,.2,.45,.2,.73s-.07,.53-.2,.73c-.14,.2-.33,.36-.58,.47l.85,1.22h-.94Zm-.22-2.92c-.14-.11-.34-.17-.6-.17h-.72v1.33h.72c.26,0,.46-.06,.6-.17s.21-.28,.21-.49-.07-.38-.21-.49Z" style="fill:#bc955c;"/><path d="M19.53,39.11v.71h-2.94v-3.81h2.87v.71h-1.99v.83h1.76v.69h-1.76v.88h2.06Z" style="fill:#bc955c;"/><path d="M24.7,36.01l-1.64,3.81h-.87l-1.64-3.81h.95l1.15,2.72,1.17-2.72h.87Z" style="fill:#bc955c;"/><path d="M25.86,36.01h.88v3.81h-.88v-3.81Z" style="fill:#bc955c;"/><path d="M28.79,39.76c-.28-.08-.5-.19-.67-.32l.3-.66c.16,.12,.36,.22,.58,.29,.22,.07,.45,.11,.67,.11,.25,0,.43-.04,.55-.11,.12-.07,.18-.17,.18-.3,0-.09-.04-.17-.11-.23-.07-.06-.16-.11-.27-.14-.11-.04-.26-.08-.45-.12-.29-.07-.53-.14-.71-.21-.18-.07-.34-.18-.47-.33s-.2-.36-.2-.61c0-.22,.06-.42,.18-.6s.3-.32,.54-.43c.24-.11,.53-.16,.88-.16,.24,0,.48,.03,.71,.09,.23,.06,.43,.14,.61,.25l-.27,.67c-.35-.2-.7-.3-1.05-.3-.25,0-.43,.04-.54,.12-.12,.08-.18,.18-.18,.32s.07,.23,.2,.29c.14,.06,.34,.13,.62,.19,.29,.07,.53,.14,.71,.21,.18,.07,.34,.18,.47,.33,.13,.15,.2,.35,.2,.6,0,.22-.06,.42-.18,.6-.12,.18-.3,.32-.54,.43s-.54,.16-.88,.16c-.3,0-.59-.04-.87-.12Z" style="fill:#bc955c;"/><path d="M32.64,36.01h.88v3.81h-.88v-3.81Z" style="fill:#bc955c;"/><path d="M35.94,39.63c-.32-.17-.56-.41-.74-.7s-.27-.64-.27-1.01,.09-.71,.27-1.01c.18-.3,.43-.53,.74-.7,.32-.17,.67-.26,1.06-.26s.75,.09,1.06,.26c.31,.17,.56,.41,.74,.7,.18,.3,.27,.64,.27,1.01s-.09,.71-.27,1.01c-.18,.3-.43,.53-.74,.7-.31,.17-.67,.26-1.06,.26s-.75-.09-1.06-.26Zm1.67-.65c.18-.1,.32-.25,.43-.43,.1-.18,.15-.4,.15-.63s-.05-.45-.15-.63c-.1-.18-.24-.33-.43-.43-.18-.1-.38-.15-.61-.15s-.43,.05-.61,.15c-.18,.1-.32,.25-.43,.43-.1,.18-.15,.4-.15,.63s.05,.45,.15,.63c.1,.18,.24,.33,.43,.43,.18,.1,.38,.15,.61,.15s.43-.05,.61-.15Zm-.37-4.06h.91l-.98,.78h-.66l.73-.78Z" style="fill:#bc955c;"/><path d="M43.95,36.01v3.81h-.72l-1.89-2.31v2.31h-.87v-3.81h.73l1.89,2.31v-2.31h.87Z" style="fill:#bc955c;"/><path d="M48.28,39.76c-.28-.08-.5-.19-.67-.32l.3-.66c.16,.12,.36,.22,.58,.29,.22,.07,.45,.11,.67,.11,.25,0,.43-.04,.55-.11,.12-.07,.18-.17,.18-.3,0-.09-.04-.17-.11-.23-.07-.06-.16-.11-.27-.14-.11-.04-.26-.08-.45-.12-.29-.07-.53-.14-.71-.21-.18-.07-.34-.18-.47-.33s-.2-.36-.2-.61c0-.22,.06-.42,.18-.6s.3-.32,.54-.43c.24-.11,.53-.16,.88-.16,.24,0,.48,.03,.71,.09,.23,.06,.43,.14,.61,.25l-.27,.67c-.35-.2-.7-.3-1.05-.3-.25,0-.43,.04-.54,.12-.12,.08-.18,.18-.18,.32s.07,.23,.2,.29c.14,.06,.34,.13,.62,.19,.29,.07,.53,.14,.71,.21,.18,.07,.34,.18,.47,.33,.13,.15,.2,.35,.2,.6,0,.22-.06,.42-.18,.6-.12,.18-.3,.32-.54,.43s-.54,.16-.88,.16c-.3,0-.59-.04-.87-.12Z" style="fill:#bc955c;"/><path d="M52.88,39.63c-.32-.17-.56-.41-.74-.7s-.27-.64-.27-1.01,.09-.71,.27-1.01c.18-.3,.43-.53,.74-.7,.32-.17,.67-.26,1.06-.26s.75,.09,1.06,.26c.31,.17,.56,.41,.74,.7,.18,.3,.27,.64,.27,1.01s-.09,.71-.27,1.01c-.18,.3-.43,.53-.74,.7-.31,.17-.67,.26-1.06,.26s-.75-.09-1.06-.26Zm1.67-.65c.18-.1,.32-.25,.43-.43,.1-.18,.15-.4,.15-.63s-.05-.45-.15-.63c-.1-.18-.24-.33-.43-.43-.18-.1-.38-.15-.61-.15s-.43,.05-.61,.15c-.18,.1-.32,.25-.43,.43-.1,.18-.15,.4-.15,.63s.05,.45,.15,.63c.1,.18,.24,.33,.43,.43,.18,.1,.38,.15,.61,.15s.43-.05,.61-.15Z" style="fill:#bc955c;"/><path d="M58.19,39.63c-.31-.17-.56-.4-.74-.7-.18-.3-.27-.64-.27-1.01s.09-.72,.27-1.01,.42-.53,.74-.7,.66-.25,1.05-.25c.33,0,.63,.06,.89,.17,.27,.12,.49,.28,.67,.5l-.56,.52c-.26-.3-.57-.45-.95-.45-.23,0-.44,.05-.63,.15-.18,.1-.33,.25-.43,.43-.1,.18-.15,.4-.15,.63s.05,.45,.15,.63c.1,.18,.25,.33,.43,.43,.18,.1,.39,.15,.63,.15,.38,0,.7-.15,.95-.45l.56,.52c-.18,.22-.4,.39-.67,.51-.27,.12-.57,.17-.89,.17-.39,0-.74-.08-1.05-.25Z" style="fill:#bc955c;"/><path d="M62.1,36.01h.88v3.81h-.88v-3.81Z" style="fill:#bc955c;"/><path d="M67.14,39h-1.76l-.34,.82h-.9l1.69-3.81h.87l1.7,3.81h-.92l-.34-.82Zm-.28-.67l-.6-1.46-.6,1.46h1.2Z" style="fill:#bc955c;"/><path d="M69.55,36.01h.88v3.09h1.9v.72h-2.78v-3.81Z" style="fill:#bc955c;"/></g></g><rect x="147.69" y="3.72" width=".5" height="36.28" style="fill:#bc955c;"/><g><g><polygon points="165.25 39.82 169.15 39.82 169.15 34.62 175.59 34.62 175.59 31.62 169.15 31.62 169.15 28.31 176.43 28.31 176.43 25.31 165.25 25.31 165.25 39.82" style="fill:#691c32;"/><path d="M188.65,33.28c0,1.11-.24,1.94-.72,2.5-.48,.56-1.18,.84-2.1,.84s-1.63-.28-2.13-.84c-.49-.56-.74-1.39-.74-2.5v-7.97h-3.91v8.09c0,1.32,.27,2.46,.8,3.43,.54,.97,1.31,1.7,2.31,2.22,1.01,.51,2.21,.77,3.61,.77s2.63-.26,3.64-.77c1.01-.51,1.77-1.25,2.3-2.22,.53-.97,.79-2.11,.79-3.43v-8.09h-3.86v7.97Z" style="fill:#691c32;"/><polygon points="194.61 28.36 199.08 28.36 199.08 39.82 202.99 39.82 202.99 28.36 207.47 28.36 207.47 25.31 194.61 25.31 194.61 28.36" style="fill:#691c32;"/><path d="M219.17,33.28c0,1.11-.24,1.94-.72,2.5-.48,.56-1.18,.84-2.1,.84s-1.63-.28-2.13-.84c-.49-.56-.74-1.39-.74-2.5v-7.97h-3.91v8.09c0,1.32,.27,2.46,.8,3.43,.54,.97,1.31,1.7,2.31,2.22,1.01,.51,2.21,.77,3.61,.77s2.63-.26,3.64-.77c1.01-.51,1.77-1.25,2.3-2.22,.53-.97,.79-2.11,.79-3.43v-8.09h-3.86v7.97Z" style="fill:#691c32;"/><path d="M235.95,35.06c.89-.41,1.59-.98,2.09-1.72,.53-.78,.79-1.7,.79-2.77s-.26-2.05-.79-2.82c-.53-.78-1.27-1.37-2.21-1.79-.95-.42-2.08-.63-3.4-.63h-6.48v14.5h3.91v-4.08h2.4l2.42,4.03h4.21l-2.94-4.71Zm-1.74-2.88c-.46,.39-1.15,.58-2.05,.58h-2.3v-4.41h2.3c.91,0,1.59,.19,2.05,.57,.46,.38,.69,.92,.69,1.63s-.23,1.23-.69,1.62Z" style="fill:#691c32;"/></g><g><g><path d="M247.41,27.16c.46,.81,.19,1.83-.61,2.29-.83,.47-1.86,.19-2.32-.63-.45-.8-.16-1.84,.64-2.29,.81-.46,1.83-.18,2.3,.64Z" style="fill:url(#Degradado_sin_nombre_18);"/><path d="M246.88,29.39s-.05,.04-.08,.05c-.82,.47-1.86,.19-2.32-.63-.42-.74-.2-1.69,.48-2.19-.19,.29-.29,.62-.29,.99,0,1.01,.82,1.82,1.82,1.82,.14,0,.27-.02,.4-.04Z" style="fill:url(#Degradado_sin_nombre_78); mix-blend-mode:soft-light;"/><path d="M247.05,26.87c-.32-.28-.68-.39-1-.34,.38,.08,.77,.33,1.04,.74,.42,.63,.24,1.49-.13,2,.24-.26,.3-.37,.4-.53,.32-.52,.26-1.37-.31-1.86Z" style="fill:url(#Degradado_sin_nombre_20);"/><path d="M250.64,29.63c0,.13-.03,.25-.09,.34-.06,.1-.16,.19-.29,.24-.11,.04-.23,.09-.36,.15-.93,.43-2.03,1.21-2.82,1.7-.78,.49-1.6,1.4-2.14,2.14-.02,.03-.04,.06-.06,.08,0,0,0,0-.01,.01-.07,.11-.14,.21-.2,.31-.12,.21-.22,.43-.31,.65,0,0,0,0,0,0-.03,.08-.05,.16-.07,.23-.05,.18-.06,.34-.07,.5-.12,2.02,.81,2.87,.85,2.89,0,0-1.85-.88-3.01-2.74-.2-.28-.37-.58-.51-.89-.18-.38-.32-.78-.43-1.18-.13-.48-.22-.96-.25-1.43,0-.07-.01-.15-.01-.22,0-.06,0-.12,0-.18,0-.07,0-.14,0-.21,0-1.18,.29-2.33,.88-3.44,.27-.51,.65-.97,.98-1.45,.1-.14,.21-.13,.28,.01,.08,.16,.13,.34,.16,.52,.04,.26,.04,.54,.09,.8,.25,1.28,.98,1.89,2.28,1.94,1.25,.05,2.9-1.02,4.09-1.37,.07-.02,.14-.04,.21-.06h0c.16-.04,.32-.05,.49,.04,.24,.12,.36,.32,.35,.58Z" style="fill:url(#Degradado_sin_nombre_18-2);"/><path d="M250.55,29.98c-.06,.1-.16,.19-.29,.24-.98,.37-2.28,1.29-3.18,1.85-.78,.49-1.6,1.4-2.14,2.14-.02,.03-.04,.06-.06,.08h0c-.07,.12-.14,.22-.2,.32-.12,.21-.22,.44-.32,.66-.08,.23-.12,.48-.14,.73-.14,2.08,.85,2.89,.85,2.89-.19-.1-.41-.22-.65-.37-.49-.42-.83-1.03-.92-1.95,0,0-.73-4.59,7.05-6.59Z" style="fill:url(#Degradado_sin_nombre_78-2); mix-blend-mode:soft-light;"/><path d="M248.49,29.79s-4.62,2.6-5.53-1.28l-.13-1.08s-.24,.71-.13,1.53c.16,1.24,1.24,2.14,2.49,2.12,.88-.01,2.24-.23,3.31-1.29Z" style="fill:url(#Degradado_sin_nombre_13);"/></g><g><g><g><path d="M254.49,32.32s-.11-.11-.14-.15c-.02,0-.05-.13-.38,0-.37,.13-.3,.14-.45,.15,0,0-.03,.1,.36,.13-.06,.01-.12,.03-.18,.04,0,0,.17,.14,.45,.05,0,0-.03,.03-.11,.07-.02,0,.29,.07,.45-.27Z" style="fill:url(#Degradado_sin_nombre_9);"/><path d="M255.26,29.51s.29,.34,.22,.64c-.08,.29-.27,.25-.26,.25,0-.02-.35-.45-.13-.53,.14-.05,.18-.36,.17-.37Z" style="fill:url(#Degradado_sin_nombre_9-2);"/><path d="M254.57,29.42s.1,.31,.33,.61c0,0,.24,.26,.24,.25,.02,.01,.09-.54-.22-.7-.19-.1-.36-.16-.36-.16Z" style="fill:url(#Degradado_sin_nombre_9-3);"/><path d="M255.48,30.19s.21,.26,.08,.5c-.14,.23-.31,.16-.31,.16,0-.01-.24-.45,0-.47,.15-.01,.24-.19,.24-.19Z" style="fill:url(#Degradado_sin_nombre_9-4);"/><path d="M254.9,30.02s-.07,.2,.09,.41c.16,.22,.21,.3,.21,.3,0,.01,.21-.29-.04-.47-.16-.12-.26-.23-.26-.23Z" style="fill:url(#Degradado_sin_nombre_9-5);"/><path d="M255.56,30.68s.18,.29-.02,.49c-.21,.19-.37,.09-.37,.09,.01,0-.15-.47,.1-.45,.16,.01,.29-.14,.29-.14Z" style="fill:url(#Degradado_sin_nombre_9-6);"/><path d="M254.99,30.42s-.12,.17,0,.4c.12,.24,.16,.32,.16,.32,0,.02,.29-.23,.06-.46-.15-.15-.23-.26-.23-.26Z" style="fill:url(#Degradado_sin_nombre_9-7);"/><path d="M255.52,31.19s.07,.27-.15,.4c-.22,.11-.35,.01-.35,.01,.01,0-.05-.41,.18-.35,.14,.04,.32-.06,.32-.07Z" style="fill:url(#Degradado_sin_nombre_9-8);"/><path d="M255.01,30.85s-.13,.16-.06,.37c.07,.22,.08,.29,.08,.29,0,.01,.31-.14,.15-.36-.1-.15-.17-.29-.17-.29Z" style="fill:url(#Degradado_sin_nombre_9-9);"/><path d="M255.36,31.59s0,.24-.22,.31c-.22,.06-.33-.04-.33-.04,.01,0,.03-.36,.23-.27,.13,.06,.31,0,.31,0Z" style="fill:url(#Degradado_sin_nombre_9-10);"/><path d="M254.95,31.21s-.15,.12-.13,.3c.02,.19,.02,.26,.02,.26,0,0,.32-.07,.21-.29-.07-.14-.1-.28-.11-.28Z" style="fill:url(#Degradado_sin_nombre_9-11);"/><path d="M255.14,31.9s-.05,.21-.28,.24c-.22,.02-.29-.08-.29-.08,.01,0,.09-.3,.27-.19,.11,.07,.3,.04,.3,.04Z" style="fill:url(#Degradado_sin_nombre_9-12);"/><path d="M254.82,31.5s-.16,.1-.18,.26c-.02,.17-.03,.22-.03,.22,0,0,.3-.01,.25-.21-.03-.13-.04-.27-.05-.27Z" style="fill:url(#Degradado_sin_nombre_9-13);"/><path d="M254.89,32.13s-.1,.19-.32,.17c-.21-.01-.27-.11-.27-.11,.01,0,.15-.25,.3-.13,.09,.08,.29,.07,.29,.07Z" style="fill:url(#Degradado_sin_nombre_9-14);"/><path d="M254.64,31.74s-.18,.07-.22,.21c-.05,.15-.07,.19-.07,.19,0,0,.3,.03,.28-.15-.01-.12,0-.25,0-.25Z" style="fill:url(#Degradado_sin_nombre_9-15);"/><path d="M254.29,32.1s-.04,.04-.02,.06c.04,.06,.09,.12,.13,.18,.02,.02,.06,.03,.09,.02t0,0s.04-.04,.02-.06c-.05-.06-.09-.12-.14-.17-.02-.02-.05-.03-.08-.02h0Z" style="fill:url(#Degradado_sin_nombre_9-16);"/></g><path d="M255.75,35.17s0,0,0,0c0,.02-.02,.05-.03,.07-.21,.46-.47,.9-.78,1.32-.07,.09-.14,.18-.21,.27-.02,.03-.04,.05-.06,.08-.32,.38-.68,.73-1.08,1.07-.42,.35-.87,.63-1.33,.88-2.13,1.15-4.24,.87-4.31,.87,1.71-.74,2.39-2.02,2.43-2.05,1.55-2.28,.53-5.08,.27-5.71-.21-.51-.35-.76-.6-1.31,0,0,0,0,0,0-.04-.08-.08-.16-.12-.25,0-.01-.01-.02-.01-.03-.03-.06-.05-.12-.08-.18-.01-.03-.02-.05-.04-.08-.06-.13-.1-.27-.12-.41-.03-.17-.03-.31,.02-.51,.02-.08,.07-.13,.12-.17h0s.1-.05,.14-.06c.29-.05,.56,.18,.68,.36,.3,.41,.45,.72,.66,1.14,.37,.75,.82,1.45,1.4,2.05,.54,.56,1.15,.91,2.1,.36,.47-.27,.83-.65,1.16-1.07,.11-.13,.22-.26,.36-.43,.02,.1,.03,.16,.04,.21,.08,1.31-.12,2.51-.59,3.59Z" style="fill:url(#Degradado_sin_nombre_14);"/><path d="M251.12,30.25s1.7,4.88,4.39,2.37l.67-.77s-.22,.71-.73,1.29c-.77,.88-1.98,.93-2.81,.16-.58-.55-1.38-1.55-1.52-3.04Z" style="fill:url(#Degradado_sin_nombre_13-2);"/><g><path d="M252.95,32.03c0-.05-.04-.14-.05-.2-.02,0,.01-.13-.29-.18-.34-.06-.28-.02-.41-.08,0,0-.06,.07,.22,.28-.05-.01-.1-.03-.15-.05,0,0,.08,.2,.33,.25,0,0-.04,.01-.11,0-.02,0,.19,.19,.45-.03Z" style="fill:url(#Degradado_sin_nombre_9-17);"/><path d="M254.67,29.96s.09,.43-.09,.66c-.18,.21-.31,.09-.3,.09,.01-.01-.09-.56,.11-.52,.13,.03,.28-.23,.28-.24Z" style="fill:url(#Degradado_sin_nombre_9-18);"/><path d="M254.18,29.55s-.05,.31,0,.68c0,0,.08,.33,.09,.33,.01,.02,.28-.43,.11-.71-.1-.17-.21-.3-.21-.3Z" style="fill:url(#Degradado_sin_nombre_9-19);"/><path d="M254.56,30.64s.06,.32-.14,.47c-.2,.13-.3,0-.3,0,.01,0,0-.5,.18-.41,.12,.06,.26-.05,.26-.05Z" style="fill:url(#Degradado_sin_nombre_9-20);"/><path d="M254.19,30.23s-.13,.14-.09,.39c.04,.26,.04,.36,.04,.35,0,.02,.27-.15,.16-.43-.08-.18-.11-.32-.11-.32Z" style="fill:url(#Degradado_sin_nombre_9-21);"/><path d="M254.43,31.11s.02,.33-.21,.42c-.23,.07-.32-.09-.32-.09,.02,0,.07-.48,.26-.34,.12,.09,.28,.01,.27,.01Z" style="fill:url(#Degradado_sin_nombre_9-22);"/><path d="M254.09,30.62s-.16,.1-.16,.35c0,.26,0,.35,0,.35,0,.02,.32-.06,.23-.37-.05-.2-.07-.33-.07-.33Z" style="fill:url(#Degradado_sin_nombre_9-23);"/><path d="M254.19,31.53s-.06,.27-.28,.28c-.21,0-.27-.15-.27-.15,.01,0,.13-.38,.28-.22,.09,.1,.27,.09,.27,.09Z" style="fill:url(#Degradado_sin_nombre_9-24);"/><path d="M253.94,30.99s-.16,.08-.19,.29c-.04,.22-.05,.29-.05,.29,0,.01,.29,.02,.26-.24-.02-.17-.01-.33-.01-.33Z" style="fill:url(#Degradado_sin_nombre_9-25);"/><path d="M253.92,31.8s-.09,.21-.29,.17c-.2-.05-.23-.19-.23-.19,.01,0,.17-.3,.29-.12,.07,.11,.24,.14,.24,.14Z" style="fill:url(#Degradado_sin_nombre_9-26);"/><path d="M253.75,31.28s-.16,.03-.22,.2c-.06,.18-.09,.23-.09,.24,0,0,.27,.09,.28-.15,0-.15,.03-.29,.03-.29Z" style="fill:url(#Degradado_sin_nombre_9-27);"/><path d="M253.62,31.97s-.13,.16-.31,.08c-.17-.08-.19-.21-.19-.2,0,0,.19-.22,.28-.04,.06,.11,.22,.17,.22,.17Z" style="fill:url(#Degradado_sin_nombre_9-28);"/><path d="M253.53,31.48s-.17,.01-.24,.15c-.08,.14-.11,.18-.11,.18,0,0,.24,.13,.27-.07,.02-.13,.08-.26,.08-.26Z" style="fill:url(#Degradado_sin_nombre_9-29);"/><path d="M253.33,32.06s-.15,.12-.31,0c-.16-.11-.16-.22-.16-.22,0,0,.21-.15,.28,.02,.04,.11,.2,.2,.2,.2Z" style="fill:url(#Degradado_sin_nombre_9-30);"/><path d="M253.3,31.6s-.16-.03-.26,.08c-.09,.11-.13,.14-.13,.14,0,0,.22,.17,.28,0,.04-.11,.11-.21,.11-.21Z" style="fill:url(#Degradado_sin_nombre_9-31);"/><path d="M252.89,31.75s-.04,.02-.04,.04c0,.07,.02,.14,.03,.21,0,.03,.03,.05,.06,.06h0s.05-.02,.04-.05c-.01-.07-.03-.14-.04-.21,0-.03-.03-.05-.05-.05h0Z" style="fill:url(#Degradado_sin_nombre_9-32);"/></g><path d="M255.37,30.04c0,.86-.68,1.53-1.53,1.53-.84,0-1.52-.69-1.52-1.54,0-.84,.7-1.53,1.55-1.52,.84,0,1.51,.69,1.5,1.53Z" style="fill:url(#Degradado_sin_nombre_9-33);"/><path d="M255.37,30.04c0,.86-.68,1.53-1.53,1.53-.65,0-1.21-.42-1.42-1,.26,.4,.71,.67,1.22,.67,.8,0,1.45-.65,1.45-1.45,0-.44-.2-.84-.51-1.11,.48,.26,.81,.77,.8,1.36Z" style="fill:url(#Degradado_sin_nombre_78-3); mix-blend-mode:soft-light;"/><path d="M250.94,38.48c-.32,.44-1.19,1.11-1.4,1.22-.68,.09-1.1,.06-1.59,.02,0,0,1.43-.52,2.43-2.05,1.55-2.28,.53-5.08,.27-5.71-.21-.51-.35-.76-.6-1.31,.1,.13,3.47,4.74,.9,7.82Z" style="fill:url(#Degradado_sin_nombre_78-4); mix-blend-mode:soft-light;"/></g><path d="M252.69,29.14c-.22,.28-.31,.6-.26,.86,.05-.33,.26-.67,.6-.91,.52-.38,1.26-.25,1.71,.05-.23-.2-.32-.24-.46-.32-.46-.25-1.18-.18-1.58,.32Z" style="fill:url(#Degradado_sin_nombre_8);"/></g><g><path d="M250.9,36.19c.13,.38-.13,.67-.43,.87-.33,.22-.68,.38-1.03,.57-.11,.06-.22,.11-.32,.21-.12,0-.23-.04-.32-.1,0,0,1.79-.78,2.1-1.56,0,0,0,0,0,0Z" style="fill:url(#Degradado_sin_nombre_7);"/><g><path d="M255.75,35.17s0,0,0,0c-.01,.02-.02,.04-.03,.07-.04,.09-.09,.19-.14,.28-.13,.26-.28,.52-.45,.76-.13,.19-.26,.37-.4,.54-.02,.03-.04,.05-.06,.08-1.43,1.74-3.6,2.84-6.03,2.84-2.76,0-5.19-1.43-6.58-3.59-.12-.19-.72-1.01-1.03-2.43,.41,.4,.76,.76,1.13,1.07,.44,.36,.9,.66,1.37,.9,.23,.12,.46,.21,.69,.3,1.42,.52,2.94,.5,4.54,.03,.29-.08,.58-.16,.88-.23,.13-.03,.27-.06,.4-.06,.36,0,.73,.06,.86,.44,0,0,0,0,0,0,.13,.38-.13,.67-.43,.87-.32,.22-.68,.38-1.03,.57-.11,.06-.23,.11-.32,.22,.12,.01,.23,.02,.34,.02,.27,0,.54-.04,.81-.12,.29-.08,.59-.19,.9-.33l.08-.04,.25-.13c.6-.39,.84-.57,1.02-.7,.02-.01,.04-.03,.06-.05,.68-.5,.91-.75,1.64-1.25,.56-.38,1-.41,1.23-.39,.17,.01,.28,.15,.29,.3Z" style="fill:url(#Degradado_sin_nombre_5);"/><path d="M241.42,34.29s2.57,3.09,7.02,2.02c.1-.02,.2-.05,.29-.09,.39-.14,1.58-.53,1.95-.04,0,0-.77-.21-1.95,.33-.12,.06-.25,.09-.38,.14-1.33,.46-5.13,.5-6.94-2.35Z" style="fill:url(#Degradado_sin_nombre_3);"/><path d="M255.61,35.01c.09,.08-.43-.47-3.07,1.67,0,0,2.43-2.26,3.07-1.67Z" style="fill:url(#Degradado_sin_nombre_3-2);"/></g><path d="M255.72,35.24c-.21,.46-.47,.9-.78,1.32-.07,.09-.14,.18-.21,.27-.02,.03-.04,.05-.06,.08-1.43,1.74-3.6,2.84-6.03,2.84-2.76,0-5.19-1.43-6.58-3.59-.2-.28-.37-.58-.51-.89,.02,.04,.05,.08,.07,.12,0,0,.37,.53,.58,.78,1.44,1.7,3.6,2.83,6.06,2.93,.45,.02,.89,0,1.32-.05,1.02-.11,1.99-.41,2.86-.85,1.36-.68,2.49-1.72,3.26-2.99,0,0,0,.02,0,.03h0Z" style="fill:url(#Degradado_sin_nombre_12);"/></g></g><g><path d="M166.72,6.53h4.34v5.41c0,1.21-.52,1.82-1.57,1.82-.4,0-.78-.11-1.14-.33-.36-.22-.71-.55-1.05-.98l-1.95,2.33c.5,.6,1.13,1.06,1.88,1.38,.75,.32,1.58,.48,2.5,.48,1.59,0,2.79-.41,3.62-1.22,.83-.81,1.24-2.03,1.24-3.67V3.75h-7.89v2.78Z" style="fill:#9f2241;"/><path d="M188.85,5.36c-.62-.59-1.36-1.05-2.22-1.37-.85-.32-1.78-.49-2.79-.49s-1.94,.16-2.79,.49c-.85,.32-1.59,.78-2.22,1.38-.62,.59-1.11,1.29-1.47,2.08-.35,.79-.53,1.66-.53,2.6s.18,1.82,.53,2.62c.35,.8,.84,1.5,1.47,2.09,.62,.59,1.37,1.05,2.23,1.38,.86,.32,1.79,.49,2.78,.49s1.94-.16,2.79-.49c.85-.32,1.59-.78,2.23-1.37s1.12-1.28,1.47-2.08c.35-.8,.52-1.68,.52-2.64s-.18-1.82-.53-2.61c-.35-.79-.84-1.48-1.47-2.07Zm-1.87,6.19c-.17,.44-.41,.82-.72,1.14-.31,.32-.67,.56-1.08,.73-.41,.17-.86,.25-1.34,.25s-.93-.08-1.34-.25c-.42-.17-.78-.41-1.09-.73-.31-.32-.55-.7-.72-1.14-.17-.44-.25-.93-.25-1.49s.08-1.05,.25-1.49c.17-.44,.41-.82,.72-1.14,.31-.32,.68-.56,1.09-.73,.41-.17,.86-.25,1.34-.25s.93,.08,1.34,.25c.41,.17,.78,.41,1.08,.73,.31,.32,.55,.7,.72,1.14,.17,.44,.26,.93,.26,1.49s-.09,1.05-.26,1.49Z" style="fill:#9f2241;"/><polygon points="187.93 0 184.49 0 182.09 2.72 184.51 2.72 187.93 0" style="fill:#9f2241;"/><polygon points="198.5 11.98 195.07 3.75 191.23 3.75 196.62 16.37 200.13 16.37 205.54 3.75 202 3.75 198.5 11.98" style="fill:#9f2241;"/><polygon points="210.26 11.29 215.86 11.29 215.86 8.64 210.26 8.64 210.26 6.53 216.62 6.53 216.62 3.75 206.74 3.75 206.74 16.37 216.85 16.37 216.85 13.6 210.26 13.6 210.26 11.29" style="fill:#9f2241;"/><polygon points="227.79 10.47 222.24 3.75 219.3 3.75 219.3 16.37 222.78 16.37 222.78 9.64 228.35 16.37 231.28 16.37 231.28 3.75 227.79 3.75 227.79 10.47" style="fill:#9f2241;"/><polygon points="237.79 11.29 243.39 11.29 243.39 8.64 237.79 8.64 237.79 6.53 244.15 6.53 244.15 3.75 234.27 3.75 234.27 16.37 244.38 16.37 244.38 13.6 237.79 13.6 237.79 11.29" style="fill:#9f2241;"/><path d="M256.45,10.9c-.26-.44-.61-.79-1.04-1.06-.43-.27-.89-.49-1.4-.65-.5-.16-1.01-.3-1.52-.41-.51-.11-.98-.21-1.4-.32-.42-.1-.76-.23-1.03-.4-.26-.16-.4-.39-.4-.68,0-.19,.07-.37,.2-.54,.13-.17,.35-.31,.65-.42,.3-.11,.7-.16,1.19-.16,.55,0,1.12,.08,1.71,.24,.59,.16,1.18,.4,1.78,.74l1.08-2.63c-.61-.37-1.32-.65-2.12-.84-.8-.19-1.61-.28-2.44-.28-1.24,0-2.27,.19-3.1,.56-.83,.37-1.45,.87-1.86,1.48-.41,.61-.61,1.29-.61,2.04,0,.67,.13,1.23,.39,1.68,.26,.45,.6,.81,1.02,1.08,.42,.28,.89,.5,1.41,.67,.52,.17,1.02,.3,1.52,.41,.5,.1,.96,.21,1.39,.32,.43,.11,.77,.25,1.04,.42,.26,.16,.4,.38,.4,.66,0,.22-.07,.4-.21,.56-.14,.16-.35,.28-.65,.36-.29,.08-.69,.13-1.2,.13-.73,0-1.47-.12-2.21-.35-.74-.24-1.39-.53-1.96-.89l-1.17,2.65c.59,.4,1.36,.72,2.31,.98s1.95,.39,3,.39c1.25,0,2.29-.19,3.12-.56,.83-.37,1.45-.87,1.86-1.49,.42-.62,.62-1.3,.62-2.03,0-.66-.13-1.21-.4-1.65Z" style="fill:#9f2241;"/></g><g><path d="M167.72,19.47c.14-.14,.3-.25,.5-.33,.2-.08,.41-.11,.64-.11,.27,0,.51,.06,.73,.17s.42,.28,.61,.5l1.02-.93c-.28-.35-.62-.62-1.04-.8-.41-.18-.88-.27-1.41-.27-.45,0-.86,.07-1.24,.22s-.71,.35-.99,.61c-.28,.26-.5,.58-.66,.94-.16,.36-.24,.76-.24,1.2s.08,.83,.24,1.2c.16,.36,.38,.68,.66,.94,.28,.26,.61,.47,.99,.61,.38,.14,.79,.22,1.24,.22,.53,0,1-.09,1.41-.28,.41-.18,.76-.45,1.04-.81l-1.02-.93c-.18,.22-.39,.39-.61,.5s-.47,.17-.73,.17c-.23,0-.45-.04-.64-.11-.2-.08-.36-.19-.5-.33-.14-.14-.25-.32-.32-.52-.08-.2-.12-.42-.12-.67s.04-.47,.12-.67c.08-.2,.19-.37,.32-.52Z" style="fill:#bc955c;"/><path d="M177.35,18.53c-.28-.27-.62-.47-1-.62-.38-.15-.8-.22-1.26-.22s-.87,.07-1.26,.22c-.38,.15-.72,.35-1,.62-.28,.27-.5,.58-.66,.94-.16,.36-.24,.75-.24,1.17s.08,.82,.24,1.18c.16,.36,.38,.67,.66,.94,.28,.27,.62,.48,1,.62,.39,.15,.81,.22,1.25,.22s.87-.07,1.26-.22,.72-.35,1-.62c.28-.27,.51-.58,.66-.94,.16-.36,.24-.76,.24-1.19s-.08-.82-.24-1.18c-.16-.36-.38-.67-.66-.93Zm-.84,2.79c-.08,.2-.19,.37-.32,.51-.14,.14-.3,.25-.49,.33-.19,.08-.39,.11-.61,.11s-.42-.04-.61-.11c-.19-.08-.35-.19-.49-.33-.14-.14-.25-.31-.32-.51-.08-.2-.11-.42-.11-.67s.04-.47,.11-.67c.08-.2,.18-.37,.32-.51s.31-.25,.49-.33c.19-.08,.39-.11,.61-.11s.42,.04,.61,.11c.19,.08,.35,.19,.49,.33,.14,.14,.25,.31,.32,.51,.08,.2,.12,.42,.12,.67s-.04,.47-.12,.67Z" style="fill:#bc955c;"/><polygon points="183.34 20.84 180.84 17.81 179.51 17.81 179.51 23.5 181.08 23.5 181.08 20.47 183.59 23.5 184.91 23.5 184.91 17.81 183.34 17.81 183.34 20.84" style="fill:#bc955c;"/><path d="M190.34,20.55c-.19-.12-.4-.22-.63-.29-.23-.07-.46-.13-.69-.18-.23-.05-.44-.1-.63-.14-.19-.05-.34-.11-.46-.18-.12-.07-.18-.17-.18-.3,0-.09,.03-.17,.09-.24,.06-.08,.16-.14,.29-.19,.14-.05,.31-.07,.54-.07,.25,0,.51,.04,.77,.11,.27,.07,.53,.18,.8,.33l.49-1.19c-.28-.17-.59-.29-.96-.38s-.73-.13-1.1-.13c-.56,0-1.02,.08-1.4,.25-.37,.17-.65,.39-.84,.67-.18,.28-.28,.58-.28,.92,0,.3,.06,.56,.17,.76,.12,.2,.27,.36,.46,.49,.19,.12,.4,.22,.63,.3,.23,.08,.46,.14,.69,.18,.23,.05,.43,.1,.63,.15s.35,.11,.47,.19c.12,.07,.18,.17,.18,.3,0,.1-.03,.18-.09,.25-.06,.07-.16,.12-.29,.16-.13,.04-.31,.06-.54,.06-.33,0-.66-.05-1-.16-.33-.11-.63-.24-.88-.4l-.53,1.2c.27,.18,.61,.33,1.04,.44,.43,.12,.88,.17,1.35,.17,.56,0,1.03-.08,1.41-.25,.37-.17,.65-.39,.84-.67,.19-.28,.28-.58,.28-.91,0-.3-.06-.55-.18-.74-.12-.2-.27-.36-.47-.48Z" style="fill:#bc955c;"/><polygon points="191.51 19.08 193.25 19.08 193.25 23.5 194.86 23.5 194.86 19.08 196.6 19.08 196.6 17.81 191.51 17.81 191.51 19.08" style="fill:#bc955c;"/><path d="M202.43,21.03c.2-.31,.31-.68,.31-1.12s-.1-.8-.31-1.12c-.2-.32-.49-.56-.87-.73-.38-.17-.83-.25-1.35-.25h-2.59v5.69h1.61v-1.51h.87l1.03,1.51h1.72l-1.23-1.79c.35-.16,.62-.39,.81-.68Zm-1.56-1.73c.17,.15,.25,.35,.25,.61s-.08,.47-.25,.62c-.17,.15-.42,.22-.76,.22h-.89v-1.67h.89c.34,0,.59,.07,.76,.22Z" style="fill:#bc955c;"/><path d="M207.73,20.92c0,.48-.09,.83-.28,1.04-.19,.21-.45,.32-.78,.32s-.6-.11-.79-.32-.28-.56-.28-1.04v-3.11h-1.61v3.16c0,.84,.23,1.49,.7,1.95,.47,.46,1.12,.69,1.96,.69s1.49-.23,1.96-.69c.47-.46,.71-1.11,.71-1.95v-3.16h-1.59v3.11Z" style="fill:#bc955c;"/><polygon points="214.4 17.81 213.05 20.07 211.71 17.81 210 17.81 212.18 21.44 212.18 23.5 213.79 23.5 213.79 21.47 215.96 17.81 214.4 17.81" style="fill:#bc955c;"/><polygon points="218.34 21.21 220.87 21.21 220.87 20.01 218.34 20.01 218.34 19.06 221.21 19.06 221.21 17.81 216.76 17.81 216.76 23.5 221.32 23.5 221.32 22.25 218.34 22.25 218.34 21.21" style="fill:#bc955c;"/><polygon points="226.45 20.84 223.95 17.81 222.63 17.81 222.63 23.5 224.2 23.5 224.2 20.47 226.71 23.5 228.03 23.5 228.03 17.81 226.45 17.81 226.45 20.84" style="fill:#bc955c;"/><path d="M233.92,18.16c-.48-.23-1.03-.35-1.65-.35h-2.69v5.69h2.69c.62,0,1.17-.12,1.65-.35,.48-.23,.85-.56,1.12-.99,.27-.43,.4-.93,.4-1.52s-.13-1.08-.4-1.5c-.27-.42-.64-.75-1.12-.98Zm-.31,3.33c-.14,.24-.32,.42-.56,.54-.24,.12-.53,.19-.86,.19h-1v-3.12h1c.33,0,.62,.06,.86,.19,.24,.13,.43,.3,.56,.53,.14,.23,.2,.51,.2,.84s-.07,.6-.2,.83Z" style="fill:#bc955c;"/><path d="M241.82,18.53c-.28-.27-.62-.47-1-.62-.38-.15-.8-.22-1.26-.22s-.87,.07-1.26,.22c-.38,.15-.72,.35-1,.62-.28,.27-.5,.58-.66,.94-.16,.36-.24,.75-.24,1.17s.08,.82,.24,1.18c.16,.36,.38,.67,.66,.94,.28,.27,.62,.48,1,.62,.39,.15,.81,.22,1.25,.22s.87-.07,1.26-.22,.72-.35,1-.62c.28-.27,.51-.58,.66-.94,.16-.36,.24-.76,.24-1.19s-.08-.82-.24-1.18c-.16-.36-.38-.67-.66-.93Zm-.84,2.79c-.08,.2-.19,.37-.32,.51-.14,.14-.3,.25-.49,.33-.19,.08-.39,.11-.61,.11s-.42-.04-.61-.11-.35-.19-.49-.33c-.14-.14-.25-.31-.32-.51-.08-.2-.11-.42-.11-.67s.04-.47,.11-.67c.08-.2,.18-.37,.32-.51,.14-.14,.31-.25,.49-.33,.19-.08,.39-.11,.61-.11s.42,.04,.61,.11c.19,.08,.35,.19,.49,.33,.14,.14,.25,.31,.32,.51,.08,.2,.12,.42,.12,.67s-.04,.47-.12,.67Z" style="fill:#bc955c;"/><polygon points="248.34 21.21 250.86 21.21 250.86 20.01 248.34 20.01 248.34 19.06 251.21 19.06 251.21 17.81 246.75 17.81 246.75 23.5 251.31 23.5 251.31 22.25 248.34 22.25 248.34 21.21" style="fill:#bc955c;"/><polygon points="254.23 22.22 254.23 17.81 252.62 17.81 252.62 23.5 256.93 23.5 256.93 22.22 254.23 22.22" style="fill:#bc955c;"/></g></g></g></g></g></svg>